<svg xmlns="http://www.w3.org/2000/svg" width="660" height="400" viewBox="0 0 660 400"><defs><style>.a{fill:#f8f8fc;}.b,.n{fill:#d4d2e6;}.b,.d,.e,.f,.g,.h,.m,.r,.s{stroke:#676096;}.b,.d,.e,.f,.g,.h,.j,.k,.l,.m,.n,.o,.p,.q,.r,.s{stroke-linecap:round;stroke-linejoin:round;}.b,.d,.e,.g,.h,.j,.k,.l,.m,.n,.o,.p,.r,.s{stroke-width:1.5px;}.b,.c,.d,.e,.g,.j,.o,.q{fill-rule:evenodd;}.c,.g,.h{fill:#fff;}.d,.j,.l,.o,.p,.q,.r,.s{fill:none;}.e{fill:#e9e8f3;}.f{fill:#f4f3fa;stroke-width:4px;}.i,.m{fill:#676096;}.j,.q{stroke:#ff7800;}.k{fill:#ff7800;}.k,.l,.o,.p{stroke:#4e22d0;}.n{stroke:#d4d2e6;}.p{stroke-dasharray:4.47 6.71;}.q{stroke-width:2px;}.s{stroke-dasharray:3.81 5.72;}.t{fill:#4e22d0;}</style></defs><rect class="a" width="660" height="400"/><path class="b" d="M392.39,95.37V56.86H575.77V180.63c-.48,3.62-2.4,5.58-5.79,5.9H398.64q-5.43-.48-6.25-5.79m0-89.27H575.77"/><path class="c" d="M575.77,91.47v89.16c-.48,3.62-2.41,5.58-5.8,5.9H398.28q-5.44-.48-6.27-5.79V91.47m0,0H575.77"/><path class="d" d="M392.39,97.2V91.47m183.38,0v89.16c-.48,3.62-2.4,5.58-5.79,5.9H398.64q-5.43-.48-6.25-5.79m0-89.27H575.77"/><path class="e" d="M392.39,72.93H404.3l9-14.87H447.2l8.73,14.87H575.77V56.17c0-3.54-1.07-5.74-3.19-6.6a7.76,7.76,0,0,0-4-.71H399.94a11.49,11.49,0,0,0-4.49.71q-3.06,1.65-3.06,6.6Z"/><line class="f" x1="539.78" y1="61.18" x2="539.78" y2="61.34"/><line class="f" x1="551.58" y1="61.18" x2="551.58" y2="61.34"/><line class="f" x1="562.52" y1="61.18" x2="562.52" y2="61.34"/><path class="g" d="M519.36,151.46l3.43,12c.51,1.89,2,2.81,4.54,2.77l13.8-.23c2.53-.05,4-1,4.47-2.93L548.55,151"/><path class="g" d="M525.54,134.06a1.31,1.31,0,0,1,.53.68l3.61,10.66,8.44-.15,3.22-10.77a1.36,1.36,0,0,1,.5-.7,1.28,1.28,0,0,1,.92-.07,1.27,1.27,0,0,1,.76.59,1.2,1.2,0,0,1,.08.92l-3,10,8.23-.14a1,1,0,0,1,1.2,1.19l.06,3.19a1,1,0,0,1-1.16,1.2l-29.86.51a1,1,0,0,1-1.23-1.15l-.06-3.2a1.07,1.07,0,0,1,1.19-1.23l8.21-.14-3.34-9.88a1.22,1.22,0,0,1,0-.92,1.3,1.3,0,0,1,1.66-.58Z"/><path class="g" d="M538.12,145.25l-.63,2.06a1.18,1.18,0,0,0,.08.89,1.16,1.16,0,0,0,.73.56,1,1,0,0,0,.86,0,1.24,1.24,0,0,0,.62-.76l.82-2.75"/><path class="g" d="M529.68,145.4l.67,2a1.18,1.18,0,0,1,0,.89,1.16,1.16,0,0,1-.71.59,1,1,0,0,1-.87,0,1.25,1.25,0,0,1-.64-.74l-.91-2.72"/><line class="h" x1="542.7" y1="153.73" x2="541.48" y2="161.7"/><line class="h" x1="531.1" y1="153.93" x2="531.81" y2="161.86"/><line class="h" x1="536.97" y1="153.83" x2="536.53" y2="161.78"/><line class="h" x1="525.37" y1="154.02" x2="526.86" y2="161.95"/><path class="b" d="M479.29,113.81v-.07h-6.77a10.19,10.19,0,0,1-19.86,0h-6.74v0l-17,8.5L436,136.54l9.92-4.95,0,26.38,33.38,0V131.62l9.88,4.95,7.13-14.25Z"/><path class="i" d="M523.7,119.14a5.54,5.54,0,0,1-2.8-.78.9.9,0,1,1,.9-1.55,4.26,4.26,0,0,0,1.25.47v-3.44a6.75,6.75,0,0,1-1.92-1.12,2.9,2.9,0,0,1-.85-2,2.94,2.94,0,0,1,1.25-2.38,4.16,4.16,0,0,1,1.52-.72v-1.13a.9.9,0,1,1,1.8,0v1.91a.91.91,0,0,1-.87.9,2.28,2.28,0,0,0-1.36.47,1.13,1.13,0,0,0-.54,1,1.15,1.15,0,0,0,.34.8,10.13,10.13,0,0,0,1.89,1,.88.88,0,0,1,.54.82v4.95a.9.9,0,0,1-.68.87A2,2,0,0,1,523.7,119.14Z"/><path class="i" d="M524,121a.9.9,0,0,1-.9-.9v-1.87a.89.89,0,0,1,.87-.9,2.18,2.18,0,0,0,1.31-.47,1.14,1.14,0,0,0,.59-1,1.05,1.05,0,0,0-.36-.78,8.46,8.46,0,0,0-1.9-1,.89.89,0,0,1-.51-.81v-4.91a.92.92,0,0,1,.61-.86,1.67,1.67,0,0,1,.49-.08,5.55,5.55,0,0,1,2.81.78.9.9,0,1,1-.9,1.56,4,4,0,0,0-1.21-.47v3.41a7.59,7.59,0,0,1,1.88,1.14,2.85,2.85,0,0,1-.41,4.44,3.74,3.74,0,0,1-1.47.72v1.09A.91.91,0,0,1,524,121Z"/><path class="i" d="M534.59,119.14a5.54,5.54,0,0,1-2.8-.78.9.9,0,1,1,.9-1.55,4.06,4.06,0,0,0,1.25.47v-3.44a6.58,6.58,0,0,1-1.92-1.12,2.89,2.89,0,0,1,.4-4.43,4.09,4.09,0,0,1,1.52-.72v-1.13a.9.9,0,1,1,1.79,0v1.91a.9.9,0,0,1-.87.9,2.28,2.28,0,0,0-1.35.47,1.13,1.13,0,0,0-.54,1,1.15,1.15,0,0,0,.34.8,10.13,10.13,0,0,0,1.89,1,.89.89,0,0,1,.53.82v4.95a.9.9,0,0,1-.68.87A1.88,1.88,0,0,1,534.59,119.14Z"/><path class="i" d="M534.83,121a.9.9,0,0,1-.89-.9v-1.87a.89.89,0,0,1,.86-.9,2.16,2.16,0,0,0,1.31-.47,1.14,1.14,0,0,0,.59-1,1,1,0,0,0-.36-.78,8.11,8.11,0,0,0-1.89-1,.89.89,0,0,1-.51-.81v-4.91a.9.9,0,0,1,.61-.86,1.67,1.67,0,0,1,.49-.08,5.51,5.51,0,0,1,2.8.78.91.91,0,0,1,.34,1.23.9.9,0,0,1-1.23.33,4.09,4.09,0,0,0-1.22-.47v3.41a7.53,7.53,0,0,1,1.89,1.14,2.84,2.84,0,0,1-.42,4.44,3.68,3.68,0,0,1-1.47.72v1.09A.9.9,0,0,1,534.83,121Z"/><path class="i" d="M545.32,119.14a5.51,5.51,0,0,1-2.8-.78.9.9,0,1,1,.9-1.55,4.1,4.1,0,0,0,1.24.47v-3.44a6.45,6.45,0,0,1-1.91-1.12,2.87,2.87,0,0,1-.86-2,2.94,2.94,0,0,1,1.25-2.38,4.16,4.16,0,0,1,1.52-.72v-1.13a.9.9,0,0,1,1.8,0v1.91a.9.9,0,0,1-.87.9,2.31,2.31,0,0,0-1.36.47,1.15,1.15,0,0,0-.54,1,1.12,1.12,0,0,0,.35.8,9.17,9.17,0,0,0,1.89,1,.89.89,0,0,1,.53.82v4.95a.9.9,0,0,1-.68.87A2,2,0,0,1,545.32,119.14Z"/><path class="i" d="M545.56,121a.9.9,0,0,1-.9-.9v-1.87a.9.9,0,0,1,.87-.9,2.18,2.18,0,0,0,1.31-.47,1.14,1.14,0,0,0,.59-1,1.05,1.05,0,0,0-.36-.78,8.48,8.48,0,0,0-1.89-1,.88.88,0,0,1-.52-.81v-4.91a.91.91,0,0,1,.62-.86,1.62,1.62,0,0,1,.49-.08,5.54,5.54,0,0,1,2.8.78.9.9,0,1,1-.9,1.56,3.94,3.94,0,0,0-1.21-.47v3.41a7.15,7.15,0,0,1,1.88,1.14,2.83,2.83,0,0,1-.41,4.44,3.74,3.74,0,0,1-1.47.72v1.09A.9.9,0,0,1,545.56,121Z"/><path class="j" d="M381.19,118.63a8,8,0,0,1,.86-1,12.49,12.49,0,0,1,17.13,0,14.67,14.67,0,0,1,1.19,1.3M395.75,143q-9.13-4.26-8.8-14a3.66,3.66,0,0,1,1.11-2.65,4,4,0,0,1,2.79-1.11,3.78,3.78,0,0,1,2.74,1.11,3.52,3.52,0,0,1,1.22,2.65,3.31,3.31,0,0,1-.06.64,3.94,3.94,0,0,0-.08.8,3.23,3.23,0,0,0,1,2.38,3.61,3.61,0,0,0,2.46.94,3.38,3.38,0,0,0,2.43-.94,3.18,3.18,0,0,0,1.06-2.38,14.47,14.47,0,0,0-.86-5.81,12.21,12.21,0,0,0-2.8-4.12,10.19,10.19,0,0,0-7.36-2.91,10.06,10.06,0,0,0-7.3,2.91,9.31,9.31,0,0,0-2.6,4.12,19,19,0,0,0,0,11.12m6.11,4c-2.43-2.78-3.61-6.42-3.51-10.9a7.14,7.14,0,0,1,2.1-5.15,7.64,7.64,0,0,1,5.2-2,7.49,7.49,0,0,1,5.23,2,6.84,6.84,0,0,1,2.3,5.15,7.19,7.19,0,0,1-.06.91M383.8,112.54a14.32,14.32,0,0,1,13.91.42m-6.94,16.52q.53,8.49,7.61,8.66"/><circle class="k" cx="392.01" cy="150.93" r="5.74"/><circle class="l" cx="392.01" cy="150.93" r="12.52"/><line class="l" x1="401.64" y1="150.64" x2="409.33" y2="150.64"/><line class="l" x1="374.69" y1="150.64" x2="381.86" y2="150.64"/><line class="l" x1="392.01" y1="140.43" x2="392.01" y2="132.74"/><line class="l" x1="392.01" y1="169.11" x2="392.01" y2="161.42"/><path class="b" d="M267.61,180.63c-.47,3.62-2.39,5.58-5.78,5.9H90.49q-5.43-.48-6.26-5.79V56.86H267.61V97.2M84.23,91.47H267.61"/><path class="c" d="M268.07,91.47v89.16c-.48,3.62-2.41,5.58-5.8,5.9H90.5c-3.63-.32-5.71-2.25-6.27-5.79V91.47m0,0H268.07"/><path class="d" d="M267.61,180.63c-.47,3.62-2.39,5.58-5.78,5.9H90.49q-5.43-.48-6.26-5.79V91.47m183.38,0V97.2M84.23,91.47H267.61"/><path class="e" d="M84.23,72.93H96.14l9-14.87h33.94l8.73,14.87H267.61V56.17q0-5.31-3.18-6.6a7.79,7.79,0,0,0-4-.71H91.79a11.49,11.49,0,0,0-4.49.71c-2,1.1-3.07,3.3-3.07,6.6Z"/><line class="f" x1="231.63" y1="61.18" x2="231.63" y2="61.34"/><line class="f" x1="243.43" y1="61.18" x2="243.43" y2="61.34"/><line class="f" x1="254.36" y1="61.18" x2="254.36" y2="61.34"/><path class="j" d="M256.42,118.58a7.27,7.27,0,0,1,.86-1,12.46,12.46,0,0,1,17.13,0,13.39,13.39,0,0,1,1.19,1.3M271,143q-9.14-4.26-8.8-14a3.68,3.68,0,0,1,1.11-2.66,4,4,0,0,1,2.79-1.11,3.78,3.78,0,0,1,2.74,1.11A3.54,3.54,0,0,1,270,129a3.21,3.21,0,0,1-.06.63,4,4,0,0,0-.08.81,3.24,3.24,0,0,0,1,2.38,3.66,3.66,0,0,0,2.46.94,3.42,3.42,0,0,0,2.43-.94,3.18,3.18,0,0,0,1-2.38,14.3,14.3,0,0,0-.85-5.81,12.25,12.25,0,0,0-2.8-4.13,10.23,10.23,0,0,0-7.36-2.9,10.09,10.09,0,0,0-7.3,2.9,9.34,9.34,0,0,0-2.6,4.13,19,19,0,0,0,0,11.12m6.11,4c-2.43-2.79-3.61-6.42-3.51-10.91a7.11,7.11,0,0,1,2.1-5.14,7.65,7.65,0,0,1,5.2-2,7.49,7.49,0,0,1,5.23,2,6.82,6.82,0,0,1,2.3,5.14,7.34,7.34,0,0,1-.06.92M259,112.49a14.3,14.3,0,0,1,13.92.41M266,129.42q.53,8.51,7.61,8.66"/><circle class="k" cx="267.61" cy="150.98" r="5.74"/><circle class="l" cx="267.61" cy="150.98" r="12.52"/><line class="l" x1="277.25" y1="150.69" x2="284.93" y2="150.69"/><line class="l" x1="250.3" y1="150.69" x2="257.47" y2="150.69"/><line class="l" x1="267.61" y1="140.48" x2="267.61" y2="132.8"/><line class="l" x1="267.61" y1="169.17" x2="267.61" y2="161.48"/><line class="m" x1="100.55" y1="141.02" x2="182.61" y2="141.02"/><line class="m" x1="100.55" y1="151.31" x2="182.61" y2="151.31"/><line class="m" x1="100.55" y1="161.59" x2="182.61" y2="161.59"/><line class="m" x1="100.55" y1="171.87" x2="182.61" y2="171.87"/><rect class="n" x="196.06" y="108.48" width="41.37" height="63.39"/><polyline class="o" points="303.5 335.6 337.55 335.6 356.5 335.6"/><polyline class="o" points="303.5 343.2 337.55 343.2 356.5 343.2"/><line class="l" x1="351.87" y1="150.69" x2="349.87" y2="150.69"/><line class="p" x1="343.16" y1="150.69" x2="312.97" y2="150.69"/><line class="l" x1="309.61" y1="150.69" x2="307.61" y2="150.69"/><polyline class="o" points="304.98 155.31 301.23 150.69 304.98 146.07"/><polyline class="o" points="355.02 155.31 358.77 150.69 355.02 146.07"/><path class="q" d="M151.46,271.35a18.89,18.89,0,0,1,2.22-2.5,32.24,32.24,0,0,1,44.25,0,35,35,0,0,1,3.08,3.36M189.07,334.4q-23.59-11-22.74-36.1a9.55,9.55,0,0,1,2.86-6.86,10.42,10.42,0,0,1,7.22-2.86,9.74,9.74,0,0,1,7.08,2.86,9.1,9.1,0,0,1,3.15,6.86,8.8,8.8,0,0,1-.15,1.65,9.42,9.42,0,0,0-.21,2.07,8.43,8.43,0,0,0,2.57,6.15,9.41,9.41,0,0,0,6.36,2.43,8.85,8.85,0,0,0,6.3-2.43,8.19,8.19,0,0,0,2.71-6.15A37.19,37.19,0,0,0,202,287a31.57,31.57,0,0,0-7.23-10.65,26.34,26.34,0,0,0-19-7.51,26,26,0,0,0-18.87,7.51A24.28,24.28,0,0,0,150.18,287a49.21,49.21,0,0,0,0,28.74M166,326q-9.45-10.8-9.08-28.17a18.37,18.37,0,0,1,5.43-13.29,19.74,19.74,0,0,1,13.44-5.08,19.33,19.33,0,0,1,13.51,5.08,17.58,17.58,0,0,1,5.93,13.29,19.13,19.13,0,0,1-.14,2.36m-36.89-44.53a37,37,0,0,1,36,1.07M176.2,299.38q1.35,21.94,19.66,22.37"/><path class="q" d="M459.47,271.35a18.89,18.89,0,0,1,2.22-2.5,32.24,32.24,0,0,1,44.25,0,35,35,0,0,1,3.08,3.36M497.08,334.4q-23.59-11-22.74-36.1a9.55,9.55,0,0,1,2.86-6.86,10.42,10.42,0,0,1,7.22-2.86,9.74,9.74,0,0,1,7.08,2.86,9.1,9.1,0,0,1,3.15,6.86,8.8,8.8,0,0,1-.15,1.65,9.42,9.42,0,0,0-.21,2.07,8.43,8.43,0,0,0,2.57,6.15,9.41,9.41,0,0,0,6.36,2.43,8.85,8.85,0,0,0,6.3-2.43,8.19,8.19,0,0,0,2.71-6.15A37.19,37.19,0,0,0,510,287a31.69,31.69,0,0,0-7.22-10.65,26.38,26.38,0,0,0-19-7.51,26,26,0,0,0-18.87,7.51A24.28,24.28,0,0,0,458.19,287a49.21,49.21,0,0,0,0,28.74M474,326q-9.45-10.8-9.08-28.17a18.37,18.37,0,0,1,5.43-13.29,19.74,19.74,0,0,1,13.44-5.08,19.33,19.33,0,0,1,13.51,5.08,17.58,17.58,0,0,1,5.93,13.29,19.13,19.13,0,0,1-.14,2.36M466.2,255.63a37,37,0,0,1,35.95,1.07m-17.94,42.68q1.35,21.94,19.66,22.37"/><line class="r" x1="175.92" y1="228.77" x2="175.92" y2="226.77"/><line class="s" x1="175.92" y1="221.05" x2="175.92" y2="204.86"/><line class="r" x1="175.92" y1="202" x2="175.92" y2="200"/><polyline class="d" points="171.31 232.68 175.92 237.34 180.54 232.68"/><line class="r" x1="484.25" y1="228.77" x2="484.25" y2="226.77"/><line class="s" x1="484.25" y1="221.05" x2="484.25" y2="204.86"/><line class="r" x1="484.25" y1="202" x2="484.25" y2="200"/><polyline class="d" points="479.63 232.68 484.25 237.34 488.86 232.68"/><path class="t" d="M110,334.09h-5.2v4.37h-1.76v-10h1.76v4.1H110v-4.1h1.76v10H110Z"/><path class="t" d="M118.28,337.68a3.08,3.08,0,0,1-2.34,1,2.41,2.41,0,0,1-2.52-2.4,2.33,2.33,0,0,1,2.52-2.36,3,3,0,0,1,2.34.93v-1.08c0-.84-.69-1.35-1.7-1.35a2.94,2.94,0,0,0-2.14.92l-.65-1.1a4.33,4.33,0,0,1,3-1.17c1.6,0,3,.68,3,2.63v4.8h-1.57Zm0-2a2.15,2.15,0,0,0-1.73-.75,1.31,1.31,0,1,0,0,2.59,2.12,2.12,0,0,0,1.73-.75Z"/><path class="t" d="M122,336.37a3.73,3.73,0,0,0,2.46,1c1,0,1.43-.34,1.43-.88s-.77-.86-1.65-1.05c-1.25-.27-2.73-.6-2.73-2.22,0-1.19,1-2.21,2.85-2.21a4.17,4.17,0,0,1,2.82,1l-.66,1.11a3,3,0,0,0-2.15-.87c-.82,0-1.35.3-1.35.81s.72.75,1.58.95c1.26.27,2.8.63,2.8,2.34,0,1.27-1.06,2.25-3,2.25a4.4,4.4,0,0,1-3.11-1.13Z"/><path class="t" d="M133.88,333.9c0-1.13-.59-1.47-1.47-1.47a2.43,2.43,0,0,0-1.86,1v5.06H129v-10h1.58v3.75a3.45,3.45,0,0,1,2.56-1.17,2.07,2.07,0,0,1,2.34,2.3v5.13h-1.57Z"/><path class="t" d="M138.3,331.11a1,1,0,1,1-1.05,1.05A1.06,1.06,0,0,1,138.3,331.11Zm0,5.41a1.05,1.05,0,1,1-1.05,1.05A1.06,1.06,0,0,1,138.3,336.52Z"/><path class="t" d="M145.85,335.89a3.42,3.42,0,0,0,2.7,1.19,1.84,1.84,0,0,0,2-1.76,1.78,1.78,0,0,0-2-1.78,3,3,0,0,0-2.19.87l-1.24-.36v-5.6h6.55V330h-4.8v2.89a3.27,3.27,0,0,1,2.27-.87,3.1,3.1,0,0,1,3.19,3.23c0,2.08-1.57,3.39-3.81,3.39a4.58,4.58,0,0,1-3.72-1.55Z"/><path class="t" d="M157.25,331c2.17,0,3.57,1.67,3.57,4v.37h-5.6a2.2,2.2,0,0,0,2.31,2,3.07,3.07,0,0,0,2.06-.8l.72,1a4.23,4.23,0,0,1-2.94,1.05,3.81,3.81,0,0,1-.12-7.61Zm-2,3.21h4.08a1.94,1.94,0,0,0-2-1.92A2,2,0,0,0,155.21,334.24Z"/><path class="t" d="M165.6,331c2.18,0,3.57,1.67,3.57,4v.37h-5.59a2.19,2.19,0,0,0,2.31,2,3.07,3.07,0,0,0,2.05-.8l.72,1a4.21,4.21,0,0,1-2.94,1.05,3.81,3.81,0,0,1-.12-7.61Zm-2,3.21h4.08a1.94,1.94,0,0,0-2-1.92A2,2,0,0,0,163.56,334.24Z"/><path class="t" d="M170.73,328.45h1.58v3.77a2.85,2.85,0,0,1,2.32-1.19c1.86,0,3.21,1.47,3.21,3.81s-1.36,3.8-3.21,3.8a2.9,2.9,0,0,1-2.32-1.17v1h-1.58Zm3.44,8.79a2.44,2.44,0,0,0,0-4.81,2.35,2.35,0,0,0-1.86,1v2.86A2.32,2.32,0,0,0,174.17,337.24Z"/><path class="t" d="M180.35,336.19a2.62,2.62,0,0,0,2.05.87c1.82,0,2.64-1.65,2.64-3.28v-.3a3.46,3.46,0,0,1-2.68,1.41,3.13,3.13,0,0,1-3.36-3.24,3.42,3.42,0,0,1,3.69-3.36c2.94,0,4.12,2.38,4.12,5.17s-1.51,5.16-4.41,5.16a3.89,3.89,0,0,1-2.86-1.11Zm2.43-6.34a1.86,1.86,0,0,0-2,1.74,1.8,1.8,0,0,0,2,1.78A2.69,2.69,0,0,0,185,332.2,2.28,2.28,0,0,0,182.78,329.85Z"/><path class="t" d="M188.75,335.86a3.73,3.73,0,0,0,2.77,1.22c1.32,0,2.09-.6,2.09-1.53s-.8-1.41-2.22-1.41h-1.16v-1.57h1.16c1.17,0,2.05-.4,2.05-1.32s-.9-1.41-2-1.41a3.52,3.52,0,0,0-2.58,1.11l-.9-1.09a4.62,4.62,0,0,1,3.64-1.58c2.16,0,3.62,1,3.62,2.7a2.45,2.45,0,0,1-2.18,2.3,2.51,2.51,0,0,1,2.33,2.43c0,1.69-1.46,2.91-3.77,2.91A4.65,4.65,0,0,1,187.8,337Z"/><path class="t" d="M201.65,330h-5.19v-1.55h7.21v1.22l-3.88,8.79h-1.92Z"/><path class="t" d="M209.48,337.68a3.08,3.08,0,0,1-2.34,1,2.41,2.41,0,0,1-2.52-2.4,2.33,2.33,0,0,1,2.52-2.36,3,3,0,0,1,2.34.93v-1.08c0-.84-.69-1.35-1.7-1.35a2.94,2.94,0,0,0-2.14.92l-.65-1.1a4.33,4.33,0,0,1,3-1.17c1.6,0,3,.68,3,2.63v4.8h-1.57Zm0-2a2.15,2.15,0,0,0-1.73-.75,1.31,1.31,0,1,0,0,2.59,2.12,2.12,0,0,0,1.73-.75Z"/><path class="t" d="M213.47,332.59h-1.2v-1.38h1.2v-.4a2.24,2.24,0,0,1,2.29-2.51,2.58,2.58,0,0,1,1.26.29l-.34,1.15a1.33,1.33,0,0,0-.63-.15c-.62,0-1,.41-1,1.22v.4h1.47v1.38H215v5.87h-1.57Z"/><path class="t" d="M218.54,335.89a3.42,3.42,0,0,0,2.7,1.19,1.84,1.84,0,0,0,2-1.76,1.78,1.78,0,0,0-2-1.78,3,3,0,0,0-2.19.87l-1.24-.36v-5.6h6.55V330h-4.8v2.89a3.27,3.27,0,0,1,2.27-.87,3.1,3.1,0,0,1,3.19,3.23c0,2.08-1.57,3.39-3.81,3.39a4.58,4.58,0,0,1-3.72-1.55Z"/><path class="t" d="M230,331a3.26,3.26,0,0,1,2.78,1.29l-1,1a1.92,1.92,0,0,0-1.66-.85,2.42,2.42,0,0,0,0,4.81,2,2,0,0,0,1.66-.85l1,1a3.26,3.26,0,0,1-2.78,1.29,3.81,3.81,0,0,1,0-7.61Z"/><path class="t" d="M234.45,335.86a3.75,3.75,0,0,0,2.78,1.22c1.32,0,2.08-.6,2.08-1.53s-.79-1.41-2.22-1.41h-1.15v-1.57h1.15c1.17,0,2.06-.4,2.06-1.32s-.9-1.41-2-1.41a3.52,3.52,0,0,0-2.58,1.11l-.9-1.09a4.65,4.65,0,0,1,3.65-1.58c2.16,0,3.61,1,3.61,2.7a2.44,2.44,0,0,1-2.17,2.3,2.51,2.51,0,0,1,2.32,2.43c0,1.69-1.45,2.91-3.76,2.91a4.62,4.62,0,0,1-3.78-1.62Z"/><path class="t" d="M244.64,333.3a2.57,2.57,0,0,1-2.09-2.37c0-1.85,1.89-2.63,3.68-2.63s3.67.78,3.67,2.63a2.58,2.58,0,0,1-2.1,2.37,2.91,2.91,0,0,1,2.25,2.59c0,1.79-1.78,2.75-3.82,2.75s-3.84-.95-3.84-2.75A2.91,2.91,0,0,1,244.64,333.3Zm1.59.79c-.63.08-2.07.54-2.07,1.58,0,.87.93,1.41,2.07,1.41s2.05-.54,2.05-1.41C248.28,334.63,246.84,334.17,246.23,334.09Zm0-4.23c-1.1,0-1.91.5-1.91,1.34s1.29,1.3,1.91,1.41c.61-.11,1.89-.47,1.89-1.41S247.29,329.86,246.23,329.86Z"/><path class="t" d="M105.64,346.3c2.81,0,4,2.64,4,5.16s-1.2,5.18-4,5.18-4-2.66-4-5.18S102.84,346.3,105.64,346.3Zm0,1.56c-1.63,0-2.22,1.7-2.22,3.6s.59,3.62,2.22,3.62,2.22-1.71,2.22-3.62S107.28,347.86,105.64,347.86Z"/><path class="t" d="M115.45,354.19h-4.77v-1.41l4.11-6.33h2.42v6.2h1.33v1.54h-1.33v2.27h-1.76Zm-3-1.54h3V348Z"/><path class="t" d="M120.36,350.59h-1.2v-1.38h1.2v-.4a2.24,2.24,0,0,1,2.29-2.51,2.58,2.58,0,0,1,1.26.29l-.34,1.15a1.33,1.33,0,0,0-.63-.15c-.62,0-1,.41-1,1.22v.4h1.47v1.38h-1.47v5.87h-1.57Zm4.62,0h-1.2v-1.38H125v-.4a2.24,2.24,0,0,1,2.29-2.51,2.58,2.58,0,0,1,1.26.29l-.34,1.15a1.33,1.33,0,0,0-.63-.15c-.62,0-1,.41-1,1.22v.4H128v1.38h-1.47v5.87H125Z"/><path class="t" d="M129,355.08c3.89-2.94,5.4-4.25,5.4-5.69a1.61,1.61,0,0,0-1.81-1.53,3.47,3.47,0,0,0-2.7,1.2l-1-1.15a4.77,4.77,0,0,1,3.69-1.61c1.93,0,3.63,1.1,3.63,3.09s-1.7,3.5-4.38,5.52h4.44v1.55H129Z"/><path class="t" d="M141.37,349c2.18,0,3.57,1.67,3.57,4v.37h-5.59a2.19,2.19,0,0,0,2.31,2,3.07,3.07,0,0,0,2.05-.8l.72,1a4.21,4.21,0,0,1-2.94,1.05,3.81,3.81,0,0,1-.12-7.61Zm-2,3.21h4.08a1.94,1.94,0,0,0-2-1.92A2,2,0,0,0,139.33,352.24Z"/><path class="t" d="M146.5,346.45h1.58v3.77A2.85,2.85,0,0,1,150.4,349c1.86,0,3.21,1.47,3.21,3.81s-1.36,3.8-3.21,3.8a2.9,2.9,0,0,1-2.32-1.17v1H146.5Zm3.44,8.79a2.44,2.44,0,0,0,0-4.81,2.35,2.35,0,0,0-1.86,1v2.86A2.32,2.32,0,0,0,149.94,355.24Z"/><path class="t" d="M155.22,346.45h1.57v3.77a2.86,2.86,0,0,1,2.33-1.19c1.86,0,3.21,1.47,3.21,3.81s-1.37,3.8-3.21,3.8a2.92,2.92,0,0,1-2.33-1.17v1h-1.57Zm3.43,8.79a2.43,2.43,0,0,0,0-4.81,2.38,2.38,0,0,0-1.86,1v2.86A2.35,2.35,0,0,0,158.65,355.24Z"/><path class="t" d="M165.79,348.73l-1.63,1.7-1-1.07,2.88-2.91h1.53v10h-1.76Z"/><path class="t" d="M170.46,353.89a3.42,3.42,0,0,0,2.7,1.19,1.84,1.84,0,0,0,2.05-1.76,1.78,1.78,0,0,0-2-1.78,3,3,0,0,0-2.19.87l-1.24-.36v-5.6h6.55V348h-4.8v2.89a3.27,3.27,0,0,1,2.27-.87,3.11,3.11,0,0,1,3.19,3.23c0,2.08-1.57,3.39-3.81,3.39a4.58,4.58,0,0,1-3.72-1.55Z"/><path class="t" d="M182.23,346.3c2.81,0,4,2.64,4,5.16s-1.19,5.18-4,5.18-4-2.66-4-5.18S179.43,346.3,182.23,346.3Zm0,1.56c-1.63,0-2.22,1.7-2.22,3.6s.59,3.62,2.22,3.62,2.22-1.71,2.22-3.62S183.87,347.86,182.23,347.86Z"/><path class="t" d="M191.17,349a3.26,3.26,0,0,1,2.78,1.29l-1,1a1.92,1.92,0,0,0-1.66-.85,2.42,2.42,0,0,0,0,4.81,2,2,0,0,0,1.66-.85l1,1a3.26,3.26,0,0,1-2.78,1.29,3.81,3.81,0,0,1,0-7.61Z"/><path class="t" d="M195.7,350.59h-1.2v-1.38h1.2v-.4a2.24,2.24,0,0,1,2.3-2.51,2.57,2.57,0,0,1,1.25.29l-.34,1.17a1,1,0,0,0-.63-.17c-.61,0-1,.41-1,1.22v.4h1.48v1.38h-1.48v5.87H195.7Zm4.24-4.14h1.58v3.77a2.85,2.85,0,0,1,2.32-1.19c1.86,0,3.21,1.47,3.21,3.81s-1.36,3.8-3.21,3.8a2.9,2.9,0,0,1-2.32-1.17v1h-1.58Zm3.44,8.79a2.44,2.44,0,0,0,0-4.81,2.36,2.36,0,0,0-1.86,1v2.86A2.34,2.34,0,0,0,203.38,355.24Z"/><path class="t" d="M210.52,351.3a2.57,2.57,0,0,1-2.08-2.37c0-1.85,1.89-2.63,3.67-2.63s3.67.78,3.67,2.63a2.58,2.58,0,0,1-2.09,2.37,2.91,2.91,0,0,1,2.24,2.59c0,1.79-1.78,2.75-3.82,2.75s-3.84-.95-3.84-2.75A2.92,2.92,0,0,1,210.52,351.3Zm1.59.79c-.63.08-2.07.54-2.07,1.58,0,.87.93,1.41,2.07,1.41s2.06-.54,2.06-1.41C214.17,352.63,212.73,352.17,212.11,352.09Zm0-4.23c-1.09,0-1.9.5-1.9,1.34s1.29,1.3,1.9,1.41c.62-.11,1.89-.47,1.89-1.41S213.17,347.86,212.11,347.86Z"/><path class="t" d="M221.59,346.3a4,4,0,0,1,2.88,1.11l-.83,1.34a2.54,2.54,0,0,0-2-.89c-1.67,0-2.64,1.55-2.64,3.3a2.62,2.62,0,0,0,0,.29,3.42,3.42,0,0,1,2.69-1.4,3.11,3.11,0,0,1,3.34,3.23,3.41,3.41,0,0,1-3.69,3.36c-2.94,0-4.12-2.39-4.12-5.16S218.69,346.3,221.59,346.3Zm-.42,5.25a2.74,2.74,0,0,0-2.19,1.19,2.28,2.28,0,0,0,2.23,2.34,1.85,1.85,0,0,0,2-1.74A1.81,1.81,0,0,0,221.17,351.55Z"/><path class="t" d="M230.77,354.19H226v-1.41l4.11-6.33h2.41v6.2h1.34v1.54h-1.34v2.27h-1.75Zm-3-1.54h3V348Z"/><path class="t" d="M239.3,346.3a4,4,0,0,1,2.88,1.11l-.82,1.34a2.57,2.57,0,0,0-2.06-.89c-1.66,0-2.64,1.55-2.64,3.3a1.32,1.32,0,0,0,0,.29,3.4,3.4,0,0,1,2.68-1.4,3.11,3.11,0,0,1,3.35,3.23,3.42,3.42,0,0,1-3.69,3.36c-2.94,0-4.13-2.39-4.13-5.16S236.41,346.3,239.3,346.3Zm-.42,5.25a2.75,2.75,0,0,0-2.19,1.19,2.29,2.29,0,0,0,2.24,2.34,1.85,1.85,0,0,0,2-1.74C240.94,352.11,240,351.55,238.88,351.55Z"/><path class="t" d="M247.54,349c2.17,0,3.57,1.67,3.57,4v.37h-5.6a2.2,2.2,0,0,0,2.31,2,3.07,3.07,0,0,0,2.06-.8l.72,1a4.23,4.23,0,0,1-2.94,1.05,3.81,3.81,0,0,1-.12-7.61Zm-2,3.21h4.08a1.94,1.94,0,0,0-2-1.92A2,2,0,0,0,245.5,352.24Z"/><path class="t" d="M418,333.09h-5.2v4.37h-1.76v-10h1.76v4.1H418v-4.1h1.76v10H418Z"/><path class="t" d="M426.29,336.68a3.08,3.08,0,0,1-2.34,1,2.41,2.41,0,0,1-2.52-2.4,2.33,2.33,0,0,1,2.52-2.36,3,3,0,0,1,2.34.93v-1.08c0-.84-.69-1.35-1.7-1.35a2.94,2.94,0,0,0-2.14.92l-.65-1.1a4.33,4.33,0,0,1,3.05-1.17c1.6,0,3,.68,3,2.63v4.8h-1.57Zm0-2a2.15,2.15,0,0,0-1.73-.75,1.31,1.31,0,1,0,0,2.59,2.12,2.12,0,0,0,1.73-.75Z"/><path class="t" d="M430,335.37a3.73,3.73,0,0,0,2.46,1c.95,0,1.43-.34,1.43-.88s-.77-.86-1.65-1.05c-1.25-.27-2.73-.6-2.73-2.22,0-1.19,1-2.21,2.85-2.21a4.17,4.17,0,0,1,2.82,1l-.66,1.11a3,3,0,0,0-2.15-.87c-.82,0-1.35.3-1.35.81s.72.75,1.58.95c1.26.27,2.8.63,2.8,2.34,0,1.27-1.06,2.25-3,2.25a4.4,4.4,0,0,1-3.11-1.13Z"/><path class="t" d="M441.89,332.9c0-1.13-.59-1.47-1.47-1.47a2.43,2.43,0,0,0-1.86,1v5.06H437v-10h1.58v3.75a3.45,3.45,0,0,1,2.56-1.17,2.07,2.07,0,0,1,2.34,2.3v5.13h-1.57Z"/><path class="t" d="M446.31,330.11a1,1,0,1,1-1.05,1.05A1.06,1.06,0,0,1,446.31,330.11Zm0,5.41a1.05,1.05,0,1,1-1.05,1.05A1.06,1.06,0,0,1,446.31,335.52Z"/><path class="t" d="M453.86,334.89a3.42,3.42,0,0,0,2.7,1.19,1.84,1.84,0,0,0,2.05-1.76,1.78,1.78,0,0,0-2-1.78,3,3,0,0,0-2.19.87l-1.24-.36v-5.6h6.55V329h-4.8v2.89a3.27,3.27,0,0,1,2.27-.87,3.1,3.1,0,0,1,3.19,3.23c0,2.08-1.57,3.39-3.81,3.39a4.58,4.58,0,0,1-3.72-1.55Z"/><path class="t" d="M465.26,330c2.17,0,3.57,1.67,3.57,4v.37h-5.6a2.2,2.2,0,0,0,2.31,2,3.07,3.07,0,0,0,2.06-.8l.72,1a4.23,4.23,0,0,1-2.94,1.05,3.81,3.81,0,0,1-.12-7.61Zm-2,3.21h4.08a1.94,1.94,0,0,0-2-1.92A2,2,0,0,0,463.22,333.24Z"/><path class="t" d="M473.61,330c2.18,0,3.57,1.67,3.57,4v.37h-5.59a2.19,2.19,0,0,0,2.31,2,3.07,3.07,0,0,0,2.05-.8l.72,1a4.21,4.21,0,0,1-2.94,1.05,3.81,3.81,0,0,1-.12-7.61Zm-2,3.21h4.08a1.94,1.94,0,0,0-2-1.92A2,2,0,0,0,471.57,333.24Z"/><path class="t" d="M478.74,327.45h1.58v3.77a2.85,2.85,0,0,1,2.32-1.19c1.86,0,3.21,1.47,3.21,3.81s-1.36,3.8-3.21,3.8a2.9,2.9,0,0,1-2.32-1.17v1h-1.58Zm3.44,8.79a2.44,2.44,0,0,0,0-4.81,2.35,2.35,0,0,0-1.86,1v2.86A2.32,2.32,0,0,0,482.18,336.24Z"/><path class="t" d="M488.36,335.19a2.62,2.62,0,0,0,2.05.87c1.82,0,2.64-1.65,2.64-3.28v-.3a3.46,3.46,0,0,1-2.68,1.41,3.13,3.13,0,0,1-3.36-3.24,3.42,3.42,0,0,1,3.69-3.36c2.94,0,4.12,2.38,4.12,5.17s-1.51,5.16-4.41,5.16a3.89,3.89,0,0,1-2.86-1.11Zm2.43-6.34a1.86,1.86,0,0,0-2,1.74,1.8,1.8,0,0,0,2,1.78A2.69,2.69,0,0,0,493,331.2,2.28,2.28,0,0,0,490.79,328.85Z"/><path class="t" d="M496.76,334.86a3.73,3.73,0,0,0,2.77,1.22c1.32,0,2.09-.6,2.09-1.53s-.8-1.41-2.22-1.41h-1.16v-1.57h1.16c1.17,0,2.05-.4,2.05-1.32s-.9-1.41-2-1.41a3.52,3.52,0,0,0-2.58,1.11l-.9-1.09a4.62,4.62,0,0,1,3.64-1.58c2.16,0,3.62,1,3.62,2.7a2.45,2.45,0,0,1-2.18,2.3,2.51,2.51,0,0,1,2.33,2.43c0,1.69-1.46,2.91-3.77,2.91a4.65,4.65,0,0,1-3.78-1.62Z"/><path class="t" d="M509.66,329h-5.19v-1.55h7.21v1.22l-3.88,8.79h-1.92Z"/><path class="t" d="M517.49,336.68a3.08,3.08,0,0,1-2.34,1,2.41,2.41,0,0,1-2.52-2.4,2.33,2.33,0,0,1,2.52-2.36,3,3,0,0,1,2.34.93v-1.08c0-.84-.69-1.35-1.7-1.35a2.94,2.94,0,0,0-2.14.92l-.65-1.1a4.33,4.33,0,0,1,3-1.17c1.6,0,3,.68,3,2.63v4.8h-1.57Zm0-2a2.15,2.15,0,0,0-1.73-.75,1.31,1.31,0,1,0,0,2.59,2.12,2.12,0,0,0,1.73-.75Z"/><path class="t" d="M521.48,331.59h-1.2v-1.38h1.2v-.4a2.24,2.24,0,0,1,2.29-2.51,2.58,2.58,0,0,1,1.26.29l-.34,1.15a1.33,1.33,0,0,0-.63-.15c-.62,0-1,.41-1,1.22v.4h1.47v1.38h-1.47v5.87h-1.57Z"/><path class="t" d="M526.55,334.89a3.42,3.42,0,0,0,2.7,1.19,1.84,1.84,0,0,0,2-1.76,1.78,1.78,0,0,0-2-1.78,3,3,0,0,0-2.19.87l-1.24-.36v-5.6h6.55V329h-4.8v2.89a3.27,3.27,0,0,1,2.27-.87,3.1,3.1,0,0,1,3.19,3.23c0,2.08-1.57,3.39-3.81,3.39a4.58,4.58,0,0,1-3.72-1.55Z"/><path class="t" d="M538,330a3.26,3.26,0,0,1,2.78,1.29l-1,1a1.92,1.92,0,0,0-1.66-.85,2.42,2.42,0,0,0,0,4.81,2,2,0,0,0,1.66-.85l1,1a3.26,3.26,0,0,1-2.78,1.29,3.81,3.81,0,0,1,0-7.61Z"/><path class="t" d="M542.46,334.86a3.75,3.75,0,0,0,2.78,1.22c1.32,0,2.08-.6,2.08-1.53s-.79-1.41-2.22-1.41H544v-1.57h1.15c1.17,0,2.06-.4,2.06-1.32s-.9-1.41-2-1.41a3.52,3.52,0,0,0-2.58,1.11l-.9-1.09a4.65,4.65,0,0,1,3.65-1.58c2.16,0,3.61,1,3.61,2.7a2.44,2.44,0,0,1-2.17,2.3,2.51,2.51,0,0,1,2.32,2.43c0,1.69-1.45,2.91-3.76,2.91a4.62,4.62,0,0,1-3.78-1.62Z"/><path class="t" d="M552.65,332.3a2.57,2.57,0,0,1-2.09-2.37c0-1.85,1.89-2.63,3.68-2.63s3.67.78,3.67,2.63a2.58,2.58,0,0,1-2.1,2.37,2.91,2.91,0,0,1,2.25,2.59c0,1.79-1.78,2.75-3.82,2.75s-3.84-.95-3.84-2.75A2.91,2.91,0,0,1,552.65,332.3Zm1.59.79c-.63.08-2.07.54-2.07,1.58,0,.87.93,1.41,2.07,1.41s2-.54,2-1.41C556.29,333.63,554.85,333.17,554.24,333.09Zm0-4.23c-1.1,0-1.91.5-1.91,1.34s1.29,1.3,1.91,1.41c.61-.11,1.89-.47,1.89-1.41S555.3,328.86,554.24,328.86Z"/><path class="t" d="M413.65,345.3c2.81,0,4,2.64,4,5.16s-1.2,5.18-4,5.18-4-2.66-4-5.18S410.85,345.3,413.65,345.3Zm0,1.56c-1.63,0-2.22,1.7-2.22,3.6s.59,3.62,2.22,3.62,2.22-1.71,2.22-3.62S415.29,346.86,413.65,346.86Z"/><path class="t" d="M423.46,353.19h-4.77v-1.41l4.11-6.33h2.42v6.2h1.33v1.54h-1.33v2.27h-1.76Zm-3-1.54h3V347Z"/><path class="t" d="M428.37,349.59h-1.2v-1.38h1.2v-.4a2.24,2.24,0,0,1,2.29-2.51,2.58,2.58,0,0,1,1.26.29l-.34,1.15a1.33,1.33,0,0,0-.63-.15c-.62,0-1,.41-1,1.22v.4h1.47v1.38h-1.47v5.87h-1.57Zm4.62,0h-1.2v-1.38H433v-.4a2.24,2.24,0,0,1,2.29-2.51,2.58,2.58,0,0,1,1.26.29l-.34,1.15a1.33,1.33,0,0,0-.63-.15c-.62,0-1,.41-1,1.22v.4H436v1.38h-1.47v5.87H433Z"/><path class="t" d="M437,354.08c3.89-2.94,5.4-4.25,5.4-5.69a1.61,1.61,0,0,0-1.81-1.53,3.47,3.47,0,0,0-2.7,1.2l-1-1.15a4.77,4.77,0,0,1,3.69-1.61c1.93,0,3.63,1.1,3.63,3.09s-1.7,3.5-4.38,5.52h4.44v1.55H437Z"/><path class="t" d="M449.38,348c2.18,0,3.57,1.67,3.57,4v.37h-5.59a2.19,2.19,0,0,0,2.31,2,3.07,3.07,0,0,0,2.05-.8l.72,1a4.21,4.21,0,0,1-2.94,1.05,3.81,3.81,0,0,1-.12-7.61Zm-2,3.21h4.08a1.94,1.94,0,0,0-2-1.92A2,2,0,0,0,447.34,351.24Z"/><path class="t" d="M454.51,345.45h1.58v3.77a2.85,2.85,0,0,1,2.32-1.19c1.86,0,3.21,1.47,3.21,3.81s-1.36,3.8-3.21,3.8a2.9,2.9,0,0,1-2.32-1.17v1h-1.58Zm3.44,8.79a2.44,2.44,0,0,0,0-4.81,2.35,2.35,0,0,0-1.86,1v2.86A2.32,2.32,0,0,0,458,354.24Z"/><path class="t" d="M463.23,345.45h1.57v3.77a2.86,2.86,0,0,1,2.33-1.19c1.86,0,3.21,1.47,3.21,3.81s-1.37,3.8-3.21,3.8a2.92,2.92,0,0,1-2.33-1.17v1h-1.57Zm3.43,8.79a2.43,2.43,0,0,0,0-4.81,2.38,2.38,0,0,0-1.86,1v2.86A2.35,2.35,0,0,0,466.66,354.24Z"/><path class="t" d="M473.8,347.73l-1.63,1.7-1-1.07,2.88-2.91h1.53v10H473.8Z"/><path class="t" d="M478.47,352.89a3.42,3.42,0,0,0,2.7,1.19,1.84,1.84,0,0,0,2.05-1.76,1.78,1.78,0,0,0-2-1.78,3,3,0,0,0-2.19.87l-1.24-.36v-5.6h6.55V347h-4.8v2.89a3.27,3.27,0,0,1,2.27-.87,3.1,3.1,0,0,1,3.19,3.23c0,2.08-1.57,3.39-3.81,3.39a4.58,4.58,0,0,1-3.72-1.55Z"/><path class="t" d="M490.24,345.3c2.81,0,4,2.64,4,5.16s-1.2,5.18-4,5.18-4-2.66-4-5.18S487.44,345.3,490.24,345.3Zm0,1.56c-1.63,0-2.22,1.7-2.22,3.6s.59,3.62,2.22,3.62,2.22-1.71,2.22-3.62S491.88,346.86,490.24,346.86Z"/><path class="t" d="M499.18,348a3.26,3.26,0,0,1,2.78,1.29l-1,1a1.92,1.92,0,0,0-1.66-.85,2.42,2.42,0,0,0,0,4.81,2,2,0,0,0,1.66-.85l1,1a3.26,3.26,0,0,1-2.78,1.29,3.81,3.81,0,0,1,0-7.61Z"/><path class="t" d="M503.71,349.59h-1.2v-1.38h1.2v-.4a2.24,2.24,0,0,1,2.3-2.51,2.64,2.64,0,0,1,1.26.29l-.35,1.17a1,1,0,0,0-.63-.17c-.61,0-1,.41-1,1.22v.4h1.47v1.38h-1.47v5.87h-1.58Zm4.25-4.14h1.57v3.77a2.86,2.86,0,0,1,2.33-1.19c1.85,0,3.21,1.47,3.21,3.81s-1.37,3.8-3.21,3.8a2.91,2.91,0,0,1-2.33-1.17v1H508Zm3.43,8.79a2.43,2.43,0,0,0,0-4.81,2.38,2.38,0,0,0-1.86,1v2.86A2.35,2.35,0,0,0,511.39,354.24Z"/><path class="t" d="M518.53,350.3a2.57,2.57,0,0,1-2.08-2.37c0-1.85,1.89-2.63,3.67-2.63s3.67.78,3.67,2.63a2.58,2.58,0,0,1-2.09,2.37,2.92,2.92,0,0,1,2.25,2.59c0,1.79-1.79,2.75-3.83,2.75s-3.84-.95-3.84-2.75A2.92,2.92,0,0,1,518.53,350.3Zm1.59.79c-.63.08-2.07.54-2.07,1.58,0,.87.93,1.41,2.07,1.41s2.06-.54,2.06-1.41C522.18,351.63,520.74,351.17,520.12,351.09Zm0-4.23c-1.09,0-1.9.5-1.9,1.34s1.29,1.3,1.9,1.41c.62-.11,1.89-.47,1.89-1.41S521.19,346.86,520.12,346.86Z"/><path class="t" d="M529.6,345.3a4,4,0,0,1,2.88,1.11l-.82,1.34a2.57,2.57,0,0,0-2.06-.89c-1.66,0-2.64,1.55-2.64,3.3a1.32,1.32,0,0,0,0,.29,3.4,3.4,0,0,1,2.68-1.4,3.11,3.11,0,0,1,3.34,3.23,3.41,3.41,0,0,1-3.68,3.36c-2.94,0-4.13-2.39-4.13-5.16S526.71,345.3,529.6,345.3Zm-.42,5.25a2.75,2.75,0,0,0-2.19,1.19,2.29,2.29,0,0,0,2.24,2.34,1.86,1.86,0,0,0,2-1.74C531.24,351.11,530.28,350.55,529.18,350.55Z"/><path class="t" d="M538.78,353.19H534v-1.41l4.11-6.33h2.42v6.2h1.33v1.54h-1.33v2.27h-1.76Zm-3-1.54h3V347Z"/><path class="t" d="M547.32,345.3a4,4,0,0,1,2.88,1.11l-.83,1.34a2.55,2.55,0,0,0-2-.89c-1.67,0-2.65,1.55-2.65,3.3a1.32,1.32,0,0,0,0,.29,3.4,3.4,0,0,1,2.69-1.4,3.11,3.11,0,0,1,3.34,3.23,3.42,3.42,0,0,1-3.69,3.36c-2.94,0-4.12-2.39-4.12-5.16S544.42,345.3,547.32,345.3Zm-.42,5.25a2.72,2.72,0,0,0-2.19,1.19,2.28,2.28,0,0,0,2.23,2.34,1.85,1.85,0,0,0,2-1.74A1.81,1.81,0,0,0,546.9,350.55Z"/><path class="t" d="M555.55,348c2.17,0,3.57,1.67,3.57,4v.37h-5.6a2.2,2.2,0,0,0,2.31,2,3.07,3.07,0,0,0,2.06-.8l.72,1a4.21,4.21,0,0,1-2.94,1.05,3.81,3.81,0,0,1-.12-7.61Zm-2,3.21h4.08a1.94,1.94,0,0,0-2-1.92A2,2,0,0,0,553.51,351.24Z"/><path class="i" d="M106.8,115.74V128.8h-4.27v-20h4.39l9.27,12.57V108.78h4.26v20h-4.11Z"/><path class="i" d="M124.42,108.78h14.16v3.75h-9.9v4.23h9.69v3.75h-9.69V125h9.9v3.76H124.42Z"/><path class="i" d="M153.71,115.05l-3.48,13.75H145.7l-5.74-20h4.78l3.51,14.46,3.81-14.46h3.33l3.78,14.46,3.48-14.46h4.81l-5.71,20h-4.53Z"/><path class="i" d="M170.43,122.73a8.77,8.77,0,0,0,6.36,2.7c2.34,0,3.48-1.08,3.48-2.22,0-1.47-1.86-1.89-4.05-2.43-3.27-.75-7.47-1.65-7.47-6.21,0-3.33,2.88-6.09,7.59-6.09a11.17,11.17,0,0,1,7.81,2.79l-2.38,3.12A8.59,8.59,0,0,0,176,112.2c-1.83,0-2.85.81-2.85,2s1.83,1.71,4,2.22c3.3.78,7.51,1.77,7.51,6.3,0,3.66-2.62,6.43-8,6.43a11.37,11.37,0,0,1-8.46-3.19Z"/></svg>